<svg xmlns="http://www.w3.org/2000/svg" width="116.658" height="35.451" viewBox="0 0 116.658 35.451">
    <defs>
        <linearGradient id="7f83nu10aa" x1=".182" x2=".971" y1=".444" y2=".761" gradientUnits="objectBoundingBox">
            <stop offset="0" stop-color="#1c67f7"/>
            <stop offset="1" stop-color="#25e2af"/>
        </linearGradient>
    </defs>
    <g stroke="rgba(0,0,0,0)" stroke-miterlimit="10">
        <path fill="url(#7f83nu10aa)" d="M24971.166 6286.873l-.281.113a14.461 14.461 0 0 1-6.271 1.239 16.63 16.63 0 1 1 11.838-4.969 14.471 14.471 0 0 0 3.252 4.573l1.314 1.239zm6.725.484a11.623 11.623 0 0 1-2.479-4.114l-.074-.277.207-.2a15.621 15.621 0 1 0-10.932 4.466 13.478 13.478 0 0 0 5.881-1.157l.592-.233zm-18.58-5.988a1.157 1.157 0 1 1 1.156 1.151 1.158 1.158 0 0 1-1.156-1.151zm5.5-5.781a7.44 7.44 0 1 1 5.258 2.183 7.172 7.172 0 0 1-5.255-2.183zm1.295-9.234a5.618 5.618 0 1 0 3.963-1.642 5.431 5.431 0 0 0-3.96 1.642zm-12.254 9.234a7.438 7.438 0 0 1 5.26-12.7 7.684 7.684 0 0 1 1.855.227.824.824 0 0 1 .68.875v.031a.9.9 0 0 1-1.127.868 5.6 5.6 0 0 0-1.408-.176 5.611 5.611 0 1 0 0 11.222 5.893 5.893 0 0 0 1.408-.164.9.9 0 0 1 1.127.868v.025a.831.831 0 0 1-.68.881 7.684 7.684 0 0 1-1.855.227 7.165 7.165 0 0 1-5.257-2.184zm100.563.1a5.413 5.413 0 1 1 3.824 1.585 5.21 5.21 0 0 1-3.821-1.584zm1.289-6.328a3.582 3.582 0 1 0 5.063 0 3.4 3.4 0 0 0-2.527-1.05 3.445 3.445 0 0 0-2.533 1.051zm-9.951 6.328a5.41 5.41 0 0 1 3.83-9.234 5.273 5.273 0 0 1 1.629.258.824.824 0 0 1 .637.861v.05a.849.849 0 0 1-.365.724.862.862 0 0 1-.812.138 3.376 3.376 0 0 0-1.088-.176 3.564 3.564 0 0 0-3.578 3.585 3.564 3.564 0 0 0 3.578 3.579 3.538 3.538 0 0 0 1.088-.17.876.876 0 0 1 .813.125.863.863 0 0 1 .365.736.833.833 0 0 1-.637.861 5.458 5.458 0 0 1-1.629.246 5.219 5.219 0 0 1-3.828-1.582zm-4.158 1.585a.872.872 0 0 1-.641-.264.839.839 0 0 1-.271-.635v-9.008a.926.926 0 0 1 .912-.912h.02a.832.832 0 0 1 .635.271.88.88 0 0 1 .27.642v9.008a.866.866 0 0 1-.27.635.849.849 0 0 1-.635.264zm-3.781 0a.894.894 0 0 1-.641-.264.868.868 0 0 1-.271-.635v-5.422a2.609 2.609 0 0 0-.766-1.881 2.661 2.661 0 0 0-4.549 1.881v5.422a.911.911 0 0 1-.9.9h-.033a.871.871 0 0 1-.635-.264.844.844 0 0 1-.27-.635v-5.422a4.494 4.494 0 0 1 8.988 0v5.422a.915.915 0 0 1-.9.9zm-17.311-1.315a4.346 4.346 0 0 1-1.314-3.17v-5.422a.926.926 0 0 1 .9-.912h.031a.85.85 0 0 1 .635.271.877.877 0 0 1 .266.642v5.422a2.66 2.66 0 1 0 5.32 0v-5.422a.875.875 0 0 1 .271-.642.854.854 0 0 1 .641-.271h.02a.832.832 0 0 1 .635.271.86.86 0 0 1 .271.642v5.422a4.5 4.5 0 0 1-7.676 3.17zm-3.811 1.315a.9.9 0 0 1-.9-.9v-5.447a2.642 2.642 0 1 0-5.283 0v5.447a.911.911 0 0 1-.9.9h-.023a.9.9 0 0 1-.643-.264.861.861 0 0 1-.264-.635v-5.447a2.636 2.636 0 1 0-5.271 0v5.447a.866.866 0 0 1-.27.635.875.875 0 0 1-.637.264h-.025a.871.871 0 0 1-.635-.264.844.844 0 0 1-.27-.635v-5.447a4.465 4.465 0 0 1 4.471-4.473 4.45 4.45 0 0 0 7.1 0 4.468 4.468 0 0 1 4.473 4.473v5.447a.878.878 0 0 1-.258.635.9.9 0 0 1-.646.264zm-17.619 0a.9.9 0 0 1-.9-.9v-5.447a2.643 2.643 0 1 0-5.285 0v5.447a.9.9 0 0 1-.9.9h-.02a.892.892 0 0 1-.648-.264.861.861 0 0 1-.264-.635v-5.447a2.636 2.636 0 1 0-5.271 0v5.447a.844.844 0 0 1-.27.635.872.872 0 0 1-.637.264h-.023a.875.875 0 0 1-.637-.264.844.844 0 0 1-.27-.635v-5.447a4.343 4.343 0 0 1 1.309-3.164 4.466 4.466 0 0 1 6.717.459 4.243 4.243 0 0 1 3.549-1.768 4.3 4.3 0 0 1 3.164 1.309 4.348 4.348 0 0 1 1.307 3.164v5.447a.878.878 0 0 1-.258.635.894.894 0 0 1-.646.264zm41.76-13.021a1.08 1.08 0 0 1 0-1.535 1.094 1.094 0 0 1 1.535 0 1.086 1.086 0 1 1-1.535 1.535z" transform="translate(-134.5 -74.05) translate(-24813 -6180.451)"/>
        <path fill="#3a7cfa" d="M174.786 1777.711a1.155 1.155 0 1 0 1.154 1.156 1.155 1.155 0 0 0-1.154-1.156z" transform="translate(-134.5 -74.05) translate(-23.266 -1677.949)"/>
        <path fill="#6697f2" d="M178.513 1777.711a1.155 1.155 0 1 0 1.154 1.156 1.155 1.155 0 0 0-1.154-1.156z" transform="translate(-134.5 -74.05) translate(-22.682 -1677.949)"/>
    </g>
</svg>
